<svg id="line" enable-background="new 0 0 36 36" height="512" viewBox="0 0 36 36" width="512" xmlns="http://www.w3.org/2000/svg"><path d="m8.377 31.833c6.917 0 11.667 3.583 15 3.583s10.333-1.916 10.333-17.249-9.417-17.584-13.083-17.584c-17.167 0-24.5 31.25-12.25 31.25z" fill="#efefef"/><path d="m3.5 26c-.827 0-1.5-.673-1.5-1.5s.673-1.5 1.5-1.5 1.5.673 1.5 1.5-.673 1.5-1.5 1.5zm0-2c-.276 0-.5.224-.5.5s.224.5.5.5.5-.224.5-.5-.224-.5-.5-.5z" fill="#a4afc1"/><path d="m15.22 9.17c-.75-1.43-2.24-2.42-3.98-2.42-2.48 0-4.49 2.01-4.49 4.49 0 1.74.99 3.23 2.42 3.98z" fill="#2fdf84"/><path d="m26.83 15.22c1.43-.75 2.42-2.24 2.42-3.98 0-2.48-2.01-4.49-4.49-4.49-1.74 0-3.23.99-3.98 2.42z" fill="#2fdf84"/><circle cx="18" cy="18" fill="#f3f3f1" r="9.25"/><path d="m9 11.24c0-2.096 1.442-3.841 3.383-4.336-.365-.097-.746-.154-1.143-.154-2.48 0-4.49 2.01-4.49 4.49 0 1.74.99 3.23 2.42 3.98l.989-.989c-.714-.792-1.159-1.833-1.159-2.991z" fill="#00b871"/><path d="m11 18c0-4.727 3.548-8.619 8.125-9.175-.37-.045-.743-.075-1.125-.075-5.109 0-9.25 4.141-9.25 9.25s4.141 9.25 9.25 9.25c.382 0 .755-.03 1.125-.075-4.577-.556-8.125-4.448-8.125-9.175z" fill="#d5dbe1"/><path d="m26.82 15.21.01.01c.479-.251.901-.591 1.261-.989l-5.061-5.061c.579-1.104 1.601-1.94 2.837-2.266-.356-.091-.723-.154-1.107-.154-1.74 0-3.23.99-3.98 2.42l.01.01c2.864.906 5.124 3.166 6.03 6.03z" fill="#00b871"/><path d="m18 18.75h-5.25v-1.5h4.5v-4.5h1.5v5.25c0 .414-.336.75-.75.75z"/><path d="m18 28c-5.514 0-10-4.486-10-10s4.486-10 10-10 10 4.486 10 10-4.486 10-10 10zm0-18.5c-4.687 0-8.5 3.813-8.5 8.5s3.813 8.5 8.5 8.5 8.5-3.813 8.5-8.5-3.813-8.5-8.5-8.5z"/><path d="m8.821 15.884c-1.74-.913-2.821-2.692-2.821-4.644 0-2.889 2.351-5.24 5.24-5.24 1.952 0 3.731 1.081 4.644 2.821l-1.328.697c-.653-1.245-1.924-2.018-3.316-2.018-2.063 0-3.74 1.678-3.74 3.74 0 1.392.773 2.663 2.019 3.316z"/><path d="m27.179 15.884-.697-1.328c1.245-.653 2.019-1.924 2.019-3.316 0-2.063-1.678-3.74-3.74-3.74-1.392 0-2.663.773-3.316 2.019l-1.328-.697c.912-1.741 2.691-2.822 4.643-2.822 2.889 0 5.24 2.351 5.24 5.24 0 1.952-1.081 3.731-2.821 4.644z"/><path d="m23.37 24.704h1.5v5.633h-1.5z" transform="matrix(.837 -.547 .547 .837 -11.123 17.669)"/><path d="m9.064 26.77h5.633v1.5h-5.633z" transform="matrix(.547 -.837 .837 .547 -17.657 22.416)"/></svg>